<svg width="320" height="320" viewBox="0 0 320 320" fill="none" xmlns="http://www.w3.org/2000/svg">
  <rect width="320" height="320" rx="32" fill="#07111C"/>
  <circle cx="160" cy="160" r="118" fill="url(#bgGlow)" fill-opacity="0.45"/>
  <path d="M160 62L233 92V152C233 213 188 248 160 259C132 248 87 213 87 152V92L160 62Z" fill="#0B2135" stroke="#1BC4E8" stroke-width="5"/>
  <path d="M116 123L95 82L138 103" fill="#D7F5FF"/>
  <path d="M204 123L225 82L182 103" fill="#D7F5FF"/>
  <path d="M160 104C116 104 95 136 95 168C95 210 124 234 160 234C196 234 225 210 225 168C225 136 204 104 160 104Z" fill="#102D46" stroke="#8EE7FF" stroke-width="4"/>
  <ellipse cx="132" cy="169" rx="11" ry="14" fill="#CFFDFF"/>
  <ellipse cx="188" cy="169" rx="11" ry="14" fill="#CFFDFF"/>
  <circle cx="132" cy="171" r="4" fill="#0B2135"/>
  <circle cx="188" cy="171" r="4" fill="#0B2135"/>
  <path d="M160 183L149 194H171L160 183Z" fill="#1BC4E8"/>
  <path d="M148 205C154 211 166 211 172 205" stroke="#CFFDFF" stroke-width="5" stroke-linecap="round"/>
  <path d="M123 191L76 183" stroke="#8EE7FF" stroke-width="4" stroke-linecap="round"/>
  <path d="M123 202L70 203" stroke="#8EE7FF" stroke-width="4" stroke-linecap="round"/>
  <path d="M197 191L244 183" stroke="#8EE7FF" stroke-width="4" stroke-linecap="round"/>
  <path d="M197 202L250 203" stroke="#8EE7FF" stroke-width="4" stroke-linecap="round"/>
  <path d="M100 72L122 83" stroke="#1BC4E8" stroke-width="3" stroke-linecap="round"/>
  <path d="M220 72L198 83" stroke="#1BC4E8" stroke-width="3" stroke-linecap="round"/>
  <circle cx="58" cy="86" r="6" fill="#1BC4E8"/>
  <circle cx="88" cy="58" r="5" fill="#1BC4E8"/>
  <circle cx="262" cy="86" r="6" fill="#1BC4E8"/>
  <circle cx="232" cy="58" r="5" fill="#1BC4E8"/>
  <circle cx="160" cy="44" r="6" fill="#1BC4E8"/>
  <path d="M58 86L88 58L116 73" stroke="#155C82" stroke-width="3"/>
  <path d="M262 86L232 58L204 73" stroke="#155C82" stroke-width="3"/>
  <path d="M160 44L160 76" stroke="#155C82" stroke-width="3"/>
  <rect x="131" y="128" width="58" height="40" rx="10" fill="#0A1725" stroke="#1BC4E8" stroke-width="3"/>
  <path d="M145 128V119C145 110 152 103 160 103C169 103 176 110 176 119V128" stroke="#8EE7FF" stroke-width="3.5" stroke-linecap="round"/>
  <circle cx="160" cy="147" r="5" fill="#1BC4E8"/>
  <path d="M160 147V156" stroke="#1BC4E8" stroke-width="3" stroke-linecap="round"/>
  <ellipse cx="160" cy="268" rx="64" ry="18" fill="#0F3854" fill-opacity="0.55"/>
  <defs>
    <radialGradient id="bgGlow" cx="0" cy="0" r="1" gradientUnits="userSpaceOnUse" gradientTransform="translate(160 160) rotate(90) scale(118)">
      <stop stop-color="#1BC4E8"/>
      <stop offset="1" stop-color="#07111C" stop-opacity="0"/>
    </radialGradient>
  </defs>
</svg>